<?xml version="1.0" standalone="no"?>
<!DOCTYPE svg PUBLIC "-//W3C//DTD SVG 20010904//EN"
 "http://www.w3.org/TR/2001/REC-SVG-20010904/DTD/svg10.dtd">
<svg version="1.0" xmlns="http://www.w3.org/2000/svg"
 width="500.000000pt" height="500.000000pt" viewBox="0 0 500.000000 500.000000"
 preserveAspectRatio="xMidYMid meet">

<g transform="translate(0.000000,500.000000) scale(0.100000,-0.100000)"
fill="#000000" stroke="none">
<path d="M1250 4625 l0 -125 -125 0 -125 0 0 -125 0 -125 -125 0 -125 0 0
-125 0 -125 -125 0 -125 0 0 -125 0 -125 -125 0 -125 0 0 -500 0 -500 125 0
125 0 0 -125 0 -125 125 0 125 0 0 -125 0 -125 125 0 125 0 0 -125 0 -125 125
0 125 0 0 -125 0 -125 250 0 250 0 0 -125 0 -125 125 0 125 0 0 -125 0 -125
125 0 125 0 0 -125 0 -125 125 0 125 0 0 -125 0 -125 125 0 125 0 0 125 0 125
125 0 125 0 0 125 0 125 125 0 125 0 0 125 0 125 125 0 125 0 0 125 0 125 125
0 125 0 0 125 0 125 125 0 125 0 0 125 0 125 125 0 125 0 0 125 0 125 125 0
125 0 0 125 0 125 125 0 125 0 0 500 0 500 -125 0 -125 0 0 125 0 125 -125 0
-125 0 0 125 0 125 -125 0 -125 0 0 125 0 125 -125 0 -125 0 0 125 0 125 -250
0 -250 0 0 -125 0 -125 -125 0 -125 0 0 -125 0 -125 -125 0 -125 0 0 -125 0
-125 -250 0 -250 0 0 125 0 125 -125 0 -125 0 0 125 0 125 -125 0 -125 0 0
125 0 125 -250 0 -250 0 0 -125z"/>
</g>
</svg>
